<svg xmlns="http://www.w3.org/2000/svg" viewBox="0 0 191.38 191.38"><defs><style>.cls-1{fill:#47b94a;}</style></defs><g id="Capa_2" data-name="Capa 2"><g id="Capa_1-2" data-name="Capa 1"><path class="cls-1" d="M37.65,191.38H153.72a37.66,37.66,0,0,0,37.66-37.66V37.65A37.66,37.66,0,0,0,153.72,0H37.65A37.65,37.65,0,0,0,0,37.65V153.72A37.66,37.66,0,0,0,37.65,191.38Z"/><path d="M156.91,64.65c-4,0-6.88,3.16-6.88,8V90.37h-6.14V59.15H150V63a8.24,8.24,0,0,1,7.31-4h2.21v5.72ZM139.64,74.76c0-9.3-6.62-16.27-15.59-16.27a16.07,16.07,0,0,0-16,16.18v.09A16.12,16.12,0,0,0,124.63,91.1a16.32,16.32,0,0,0,13.47-6.67l-4.46-3.27a10.87,10.87,0,0,1-9,4.54,10.45,10.45,0,0,1-10.3-8.93h25.32ZM114.46,71.9a9.82,9.82,0,0,1,9.52-8,9.69,9.69,0,0,1,9.44,8ZM88.63,58.49a15.58,15.58,0,0,0-11,4.62V47.84H71.45V90.37h6.07v-4A15.77,15.77,0,0,0,88.64,91.1a16.31,16.31,0,0,0,.69-32.61h-.7Zm-.44,27.12A10.81,10.81,0,1,1,99,74.75v.09A10.72,10.72,0,0,1,88.23,85.58h0Zm-39.37-.29c5.93,0,10.53-4.55,10.53-11.37V47.84h6.37V90.37H59.43V86.32a15.63,15.63,0,0,1-11.34,4.76c-9.15,0-16.19-6.67-16.19-16.78V47.84h6.48V74C38.38,80.84,42.79,85.32,48.82,85.32Z"/><path d="M32.57,101H62.38v7.3H40.62v10.36H61.77v7H40.62v10.53H62.38v7.29H32.57Zm111.9,43.19c9.11,0,14.25-4.36,14.25-10.36,0-4.26-3-7.45-9.4-8.83l-6.73-1.38c-3.91-.73-5.14-1.45-5.14-2.9,0-1.89,1.88-3,5.35-3,3.76,0,6.55,1,7.28,4.49H158c-.43-6.54-5.14-10.86-14.68-10.86-8.24,0-14,3.4-14,10,0,4.57,3.18,7.53,10.06,9l7.52,1.74c3,.58,3.76,1.38,3.76,2.61,0,1.95-2.24,3.18-5.87,3.18-4.55,0-7.15-1-8.16-4.49h-7.93C129.78,139.85,134.63,144.19,144.47,144.19Zm-18.13-7.74h-5.93c-1.81,0-3-.8-3-2.47V119.21h8.89v-7.1h-8.89V103.2h-7.93v8.91h-6v7.1h6V136c0,4.21,3,7.54,8.32,7.54h8.53Zm-26.28-24.34v31.42h-7.9v-3a15.35,15.35,0,0,1-10,3.64h-.69a16.44,16.44,0,0,1,.69-32.88,15.39,15.39,0,0,1,10,3.63v-2.83Zm-17.25,25.2h.1a9.46,9.46,0,0,0,9.37-9.54v-.12a9.56,9.56,0,1,0-9.45,9.67Z"/></g></g></svg>