<?xml version="1.0" encoding="UTF-8" standalone="no"?>
<svg
   viewBox="0 0 64 64"
   version="1.1"
   id="svg210"
   width="64"
   height="64"
   xmlns="http://www.w3.org/2000/svg"
   xmlns:svg="http://www.w3.org/2000/svg">
  <defs
     id="defs184">
    <style
       id="style182">.cls-1{fill:#ce2b7d;}.cls-2{fill:#e5865c;}.cls-3{fill:#da2f52;}.cls-4{fill:#2f8c97;}</style>
  </defs>
  <g
     id="g1103"
     transform="scale(0.33333333)">
    <rect
       style="fill:#ce2b7d;fill-opacity:1;stroke-width:0.1;stroke-linecap:square"
       id="rect491"
       width="192"
       height="192"
       x="0"
       y="0"
       rx="40.596695"
       ry="40.596695" />
    <g
       id="Capa_1-2"
       data-name="Capa 1"
       transform="matrix(1.4438036,0,0,1.4438036,-189.74871,34.321349)"
       style="fill:#e6e6e6;fill-opacity:1">
      <path
         class="cls-1"
         d="m 233.49,26.1 a 2.59,2.59 0 0 1 -2.59,-2.59 15.22,15.22 0 1 0 -30.43,0 2.59,2.59 0 0 1 -5.18,0 15.22,15.22 0 1 0 -30.43,0 2.59,2.59 0 1 1 -5.18,0 20.38,20.38 0 0 1 38.2,-9.91 20.38,20.38 0 0 1 38.2,9.91 2.59,2.59 0 0 1 -2.59,2.59 z"
         id="path186"
         style="fill:#e6e6e6;fill-opacity:1" />
      <path
         class="cls-1"
         d="m 251.75,49.68 a 2.62,2.62 0 0 0 -2.34,-1.47 2.59,2.59 0 0 0 -1.12,0.26 5.05,5.05 0 0 1 -2,0.33 14.07,14.07 0 0 1 -4.27,-0.74 c -2.81,-0.91 -4.82,-2.38 -5.35,-3.36 a 2.59,2.59 0 0 0 -2.28,-1.36 2.64,2.64 0 0 0 -1.23,0.31 2.59,2.59 0 0 0 -1.25,1.54 2.56,2.56 0 0 0 0.21,2 12.09,12.09 0 0 0 5.21,4.56 43.69,43.69 0 0 1 -9,12.86 c 0,-0.22 0,-0.45 0,-0.69 a 14.32,14.32 0 1 0 -28.64,0 v 8.93 c -0.09,0.94 -0.63,4 -3.71,4.32 a 43.6,43.6 0 0 1 -37.83,-24.87 12.24,12.24 0 0 0 5.52,-4.69 2.61,2.61 0 0 0 -1,-3.52 2.67,2.67 0 0 0 -1.23,-0.31 2.6,2.6 0 0 0 -2.29,1.36 c -0.53,1 -2.53,2.45 -5.34,3.36 a 13.8,13.8 0 0 1 -4.27,0.74 4.88,4.88 0 0 1 -2,-0.33 2.5918816,2.5918816 0 0 0 -2.25,4.67 10.06,10.06 0 0 0 4.29,0.84 18,18 0 0 0 3.72,-0.42 48.75,48.75 0 0 0 41,28.24 v 0.09 h 0.31 c 0.25,0 0.51,0 0.75,0 0.24,0 0.59,0 0.87,0 h 1.4 a 48.69,48.69 0 0 0 44.59,-28.86 17.91,17.91 0 0 0 4.06,0.49 10.08,10.08 0 0 0 4.3,-0.84 2.6,2.6 0 0 0 1.17,-3.44 z M 211.66,76 l -0.4,-0.45 a 16.86,16.86 0 0 0 3.94,-8.43 16,16 0 0 0 -0.88,-8.22 l 0.52,-0.31 a 11,11 0 0 1 2.9,6.85 c 0.16,3.99 -2.06,7.84 -6.08,10.56 z"
         id="path188"
         style="fill:#e6e6e6;fill-opacity:1" />
    </g>
  </g>
</svg>
