<?xml version="1.0" encoding="UTF-8" standalone="no"?>
<svg
   version="1.1"
   id="Capa_1"
   x="0px"
   y="0px"
   viewBox="0 0 640 640.00001"
   xml:space="preserve"
   width="64"
   height="64"
   xmlns="http://www.w3.org/2000/svg"
   xmlns:svg="http://www.w3.org/2000/svg"><defs
   id="defs2042" />
		<style
   type="text/css"
   id="style2007">
		.st0{fill:#DD287D;}
		.st1{fill:#FFFFFF;}
		.st2{fill:none;stroke:#6D0041;stroke-width:7;stroke-miterlimit:10;}
		.st3{fill:#F5955B;}
		.st4{fill:#ED2750;}
		.st5{fill:#299BA6;}
	</style>
	<g
   id="g1448"
   transform="matrix(0.60453766,0,0,0.60453766,-51.213315,-35.440948)"><circle
     style="fill:#ffffff;fill-opacity:1;stroke-width:0.1;stroke-linecap:square"
     id="path361"
     cx="614.04498"
     cy="587.95502"
     r="529.33014" /><g
     id="g2037"
     transform="translate(-885.95,-922.67)"
     style="fill:#ed2750;fill-opacity:1">
	
	<g
   id="g1806"
   transform="matrix(1.2702293,0,0,1.2702293,-430.99305,-772.12182)"
   style="fill:#ed2750;fill-opacity:1"><path
     class="st0"
     d="m 1754.21,1700.73 c -9.39,0 -17.02,-7.64 -17.02,-17.02 0,-55.13 -44.85,-99.99 -99.99,-99.99 -55.14,0 -99.99,44.85 -99.99,99.99 0,9.39 -7.64,17.02 -17.02,17.02 -9.39,0 -17.02,-7.64 -17.02,-17.02 0,-55.13 -44.86,-99.99 -99.99,-99.99 -55.13,0 -99.99,44.85 -99.99,99.99 0,9.39 -7.64,17.02 -17.02,17.02 -9.39,0 -17.02,-7.64 -17.02,-17.02 0,-73.9 60.12,-134.03 134.03,-134.03 48.75,0 93.25,26.3 117.01,68.88 23.76,-42.59 68.26,-68.88 117.01,-68.88 73.9,0 134.03,60.12 134.03,134.03 0,9.39 -7.64,17.02 -17.02,17.02 z"
     id="path2009"
     style="fill:#ed2750;fill-opacity:1" /><path
     id="path2011"
     class="st0"
     d="m 1759.9402,1814.0294 c -2.81,0 -5.6,0.7105 -8.08,2.0605 -4,2.16 -6.911,5.7494 -8.211,10.1094 -1.29,4.36 -0.8084,8.9609 1.3516,12.9609 6.02,11.12 18.1493,21.7 34.2793,29.92 -14.53,31.7099 -34.3711,60.1193 -59.041,84.5293 0.09,-1.45 0.1504,-2.9696 0.1504,-4.5196 0,-51.8899 -42.2195,-94.1094 -94.1094,-94.1094 -51.89,0 -94.1094,42.2195 -94.1094,94.1094 v 58.6602 c -0.6,6.18 -4.1209,25.9692 -24.3809,28.4492 -52.8299,-1.91 -103.989,-18.2796 -147.9589,-47.3496 -43.46,-28.73 -78.2603,-68.7705 -100.7403,-115.9004 17.18,-8.38 30.0289,-19.2987 36.2989,-30.8887 4.4599,-8.26 1.371,-18.6201 -6.879,-23.0801 -2.48,-1.33 -5.28,-2.041 -8.08,-2.041 -6.27,0 -12.02,3.42 -15,8.92 -3.49,6.4499 -16.6809,16.1196 -35.1309,22.0996 -12.45,4.03 -22.1498,4.8808 -28.0898,4.8808 -5.7,0 -10.4299,-0.7699 -13.3399,-2.1699 -2.32,-1.12 -4.7896,-1.6797 -7.3496,-1.6797 -6.51,0 -12.5411,3.7904 -15.3711,9.6504 -4.06,8.46 -0.4793,18.6488 7.9707,22.7188 7.53,3.6199 17.2907,5.5312 28.2207,5.5312 7.53,0 15.7287,-0.9405 24.3887,-2.8105 49.3699,106.7898 152.4501,177.6998 269.75,185.5898 l -0.039,0.6309 1.9903,0.1191 c 1.67,0.11 3.3392,0.1602 4.9492,0.1602 2,0 3.8812,-0.1508 5.7012,-0.3008 3.1,0.09 6.1396,0.1699 9.1796,0.1699 62.72,0 123.4287,-17.9593 175.5586,-51.9492 51.58,-33.63 92.1816,-81.2394 117.5215,-137.7793 9.28,2.16 18.2397,3.2597 26.6797,3.2597 10.95,0 20.7203,-1.911 28.2402,-5.541 8.46,-4.07 12.029,-14.2587 7.959,-22.7187 -2.82,-5.86 -8.8398,-9.6504 -15.3398,-9.6504 -2.57,0 -5.0489,0.5694 -7.3789,1.6894 -2.91,1.4 -7.6516,2.17 -13.3516,2.17 -5.94,0 -15.6401,-0.8489 -28.0801,-4.8789 -18.4399,-5.97 -31.6386,-15.6416 -35.1386,-22.1016 -2.98,-5.5 -8.7203,-8.9199 -14.9903,-8.9199 z m -128.3105,100.1914 c 11.83,13.36 18.4203,28.8987 19.0703,44.9687 1.06,26.31 -13.4995,51.6215 -39.9395,69.4414 l -2.6406,-2.9511 c 14.07,-16.56 22.7897,-35.2097 25.9297,-55.4297 2.82,-18.19 0.8809,-36.36 -5.7891,-54 z"
     style="fill:#ed2750;fill-opacity:1" /></g>
	
	

</g></g>
</svg>
