<?xml version="1.0" encoding="UTF-8" standalone="no"?>
<svg
   viewBox="0 0 551.23 560.13"
   version="1.1"
   id="svg210"
   xmlns="http://www.w3.org/2000/svg"
   xmlns:svg="http://www.w3.org/2000/svg">
  <defs
     id="defs184">
    <style
       id="style182">.cls-1{fill:#ce2b7d;}.cls-2{fill:#fff;}.cls-3{fill:#e5865c;}.cls-4{fill:#da2f52;}.cls-5{fill:#2f8c97;}</style>
  </defs>
  <g
     id="Capa_1-2"
     data-name="Capa 1">
    <path
       class="cls-1"
       d="M389.72,394.12a7.65,7.65,0,0,1-7.64-7.64,44.88,44.88,0,0,0-89.76,0,7.64,7.64,0,0,1-15.28,0,44.88,44.88,0,0,0-89.76,0,7.64,7.64,0,0,1-15.28,0,60.12,60.12,0,0,1,112.68-29.24,60.12,60.12,0,0,1,112.68,29.24A7.65,7.65,0,0,1,389.72,394.12Z"
       id="path186" />
    <path
       id="path429"
       class="cls-1"
       d="M 392.52344 445.00977 A 7.65 7.65 0 0 0 388.68945 445.90039 A 7.65 7.65 0 0 0 385.60938 456.25977 C 388.31937 461.24976 393.76001 465.98969 401 469.67969 A 128.39 128.39 0 0 1 374.4707 507.59961 C 374.5307 506.97961 374.5293 506.28961 374.5293 505.59961 A 42.24 42.24 0 0 0 290.05078 505.59961 L 290.05078 531.92969 C 289.78078 534.69968 288.1996 543.57922 279.09961 544.69922 A 128.66 128.66 0 0 1 167.4707 471.43945 C 175.1907 467.67946 180.94953 462.78007 183.76953 457.58008 A 7.6401325 7.6401325 0 1 0 170.33008 450.31055 C 168.76008 453.23054 162.84054 457.54047 154.56055 460.23047 A 41.31 41.31 0 0 1 141.94922 462.41992 A 14.78 14.78 0 0 1 135.94922 461.41992 A 7.55 7.55 0 0 0 132.65039 460.66992 A 7.64 7.64 0 0 0 129.33008 475.19922 A 29.71 29.71 0 0 0 142 477.67969 A 52.28 52.28 0 0 0 153 476.41016 A 143.77 143.77 0 0 0 274.01953 559.76953 L 274.01953 560.05078 L 274.91016 560.05078 C 275.66016 560.13078 276.41086 560.13086 277.13086 560.13086 C 278.00086 560.13086 278.88016 560.06023 279.66016 559.99023 C 281.05015 560.07023 282.4093 560.07031 283.7793 560.07031 A 143.67 143.67 0 0 0 415.33008 474.91016 A 52.92 52.92 0 0 0 427.33008 476.36914 A 29.68 29.68 0 0 0 440 473.89062 A 7.64 7.64 0 0 0 436.68945 459.34961 A 7.47 7.47 0 0 0 433.38086 460.10938 A 14.8 14.8 0 0 1 427.38086 461.10938 A 41.31 41.31 0 0 1 414.76953 458.91992 C 406.49954 456.23992 400.57 451.9 399 449 A 7.65 7.65 0 0 0 392.52344 445.00977 z M 334.69922 489.9707 A 32.4 32.4 0 0 1 337.06836 492.84766 A 32.4 32.4 0 0 1 339.08984 495.97656 A 32.4 32.4 0 0 1 340.74023 499.31836 A 32.4 32.4 0 0 1 341.99414 502.82812 A 32.4 32.4 0 0 1 342.83789 506.45703 A 32.4 32.4 0 0 1 343.25977 510.16016 C 343.27445 510.52922 343.28214 510.89753 343.2832 511.26562 C 343.28427 511.63372 343.27808 512.00219 343.26562 512.36914 C 343.25317 512.73609 343.23486 513.10117 343.20898 513.4668 C 343.18311 513.83242 343.15052 514.19837 343.11133 514.5625 C 343.07214 514.92663 343.02701 515.2899 342.97461 515.65234 C 342.9222 516.01479 342.86239 516.37574 342.79688 516.73633 C 342.73136 517.09692 342.65861 517.45589 342.58008 517.81445 C 342.50154 518.17301 342.41762 518.53037 342.32617 518.88672 C 342.23473 519.24307 342.13746 519.59917 342.0332 519.95312 C 341.92895 520.30708 341.81814 520.66033 341.70117 521.01172 C 341.58421 521.36311 341.45965 521.7119 341.33008 522.06055 C 341.2005 522.4092 341.06591 522.75779 340.92383 523.10352 C 340.78175 523.44924 340.633 523.79214 340.47852 524.13477 C 340.32403 524.47739 340.16288 524.81885 339.99609 525.1582 C 339.8293 525.49755 339.65751 525.83598 339.47852 526.17188 C 339.29952 526.50777 339.11297 526.84156 338.92188 527.17383 C 338.73078 527.50609 338.53512 527.83561 338.33203 528.16406 C 338.12894 528.49252 337.91812 528.82006 337.70312 529.14453 C 337.48813 529.469 337.26781 529.79102 337.04102 530.11133 C 336.81423 530.43163 336.58224 530.75044 336.34375 531.06641 C 336.10526 531.38237 335.86141 531.69637 335.61133 532.00781 C 335.36125 532.31925 335.10532 532.62685 334.84375 532.93359 C 334.58218 533.24034 334.31398 533.54579 334.04102 533.84766 C 333.76805 534.14953 333.48934 534.44928 333.20508 534.74609 C 332.92082 535.04291 332.63138 535.33732 332.33594 535.62891 C 332.04049 535.92049 331.74013 536.20796 331.43359 536.49414 C 331.12706 536.78032 330.81362 537.06511 330.49609 537.3457 C 330.17857 537.6263 329.85575 537.90291 329.52734 538.17773 C 329.19894 538.45256 328.86458 538.72525 328.52539 538.99414 C 328.1862 539.26303 327.84206 539.52825 327.49219 539.79102 C 327.14231 540.05379 326.78819 540.31384 326.42773 540.57031 C 326.06728 540.82679 325.70102 541.08008 325.33008 541.33008 L 324.15039 540 A 49.91 49.91 0 0 0 327.0293 536.36523 A 49.91 49.91 0 0 0 329.55859 532.48047 A 49.91 49.91 0 0 0 331.71484 528.37695 A 49.91 49.91 0 0 0 333.48242 524.08984 A 49.91 49.91 0 0 0 334.8457 519.6582 A 49.91 49.91 0 0 0 335.78906 515.11914 A 47.36 47.36 0 0 0 335.85156 514.71289 A 47.36 47.36 0 0 0 335.9082 514.30664 A 47.36 47.36 0 0 0 335.96289 513.90039 A 47.36 47.36 0 0 0 336.01172 513.49219 A 47.36 47.36 0 0 0 336.05859 513.08398 A 47.36 47.36 0 0 0 336.10352 512.67578 A 47.36 47.36 0 0 0 336.14258 512.26758 A 47.36 47.36 0 0 0 336.17969 511.85742 A 47.36 47.36 0 0 0 336.21094 511.44727 A 47.36 47.36 0 0 0 336.24023 511.03906 A 47.36 47.36 0 0 0 336.26562 510.62891 A 47.36 47.36 0 0 0 336.28711 510.21875 A 47.36 47.36 0 0 0 336.30664 509.80859 A 47.36 47.36 0 0 0 336.32227 509.39648 A 47.36 47.36 0 0 0 336.33203 508.98633 A 47.36 47.36 0 0 0 336.33984 508.57617 A 47.36 47.36 0 0 0 336.34375 508.16602 A 47.36 47.36 0 0 0 336.3457 507.75391 A 47.36 47.36 0 0 0 336.3418 507.34375 A 47.36 47.36 0 0 0 336.33594 506.93359 A 47.36 47.36 0 0 0 336.32617 506.52148 A 47.36 47.36 0 0 0 336.3125 506.11133 A 47.36 47.36 0 0 0 336.29492 505.70117 A 47.36 47.36 0 0 0 336.27344 505.29102 A 47.36 47.36 0 0 0 336.25 504.88086 A 47.36 47.36 0 0 0 336.22266 504.4707 A 47.36 47.36 0 0 0 336.19141 504.0625 A 47.36 47.36 0 0 0 336.15625 503.65234 A 47.36 47.36 0 0 0 336.11719 503.24414 A 47.36 47.36 0 0 0 336.07422 502.83398 A 47.36 47.36 0 0 0 336.0293 502.42578 A 47.36 47.36 0 0 0 335.98047 502.01953 A 47.36 47.36 0 0 0 335.92773 501.61133 A 47.36 47.36 0 0 0 335.87109 501.20508 A 47.36 47.36 0 0 0 335.8125 500.79883 A 47.36 47.36 0 0 0 335.74805 500.39258 A 47.36 47.36 0 0 0 335.68164 499.98633 A 47.36 47.36 0 0 0 335.61133 499.58203 A 47.36 47.36 0 0 0 335.53711 499.17773 A 47.36 47.36 0 0 0 335.46094 498.77539 A 47.36 47.36 0 0 0 335.37891 498.37109 A 47.36 47.36 0 0 0 335.29492 497.9707 A 47.36 47.36 0 0 0 335.20703 497.56836 A 47.36 47.36 0 0 0 335.11719 497.16797 A 47.36 47.36 0 0 0 335.02148 496.76758 A 47.36 47.36 0 0 0 334.92383 496.36914 A 47.36 47.36 0 0 0 334.82227 495.9707 A 47.36 47.36 0 0 0 334.7168 495.57422 A 47.36 47.36 0 0 0 334.60742 495.17773 A 47.36 47.36 0 0 0 334.49609 494.7832 A 47.36 47.36 0 0 0 334.38086 494.38867 A 47.36 47.36 0 0 0 334.26172 493.99609 A 47.36 47.36 0 0 0 334.14062 493.60352 A 47.36 47.36 0 0 0 334.01367 493.21289 A 47.36 47.36 0 0 0 333.88477 492.82227 A 47.36 47.36 0 0 0 333.75391 492.43359 A 47.36 47.36 0 0 0 333.61719 492.04492 A 47.36 47.36 0 0 0 333.47852 491.66016 A 47.36 47.36 0 0 0 333.33594 491.27344 A 47.36 47.36 0 0 0 333.18945 490.89062 L 334.69922 489.9707 z " />
    <path
       class="cls-1"
       d="M78,374.06v-.25c0-14.2,11.09-21.17,27.16-21.17a54.84,54.84,0,0,1,17.68,2.74v-1.62c0-9.34-5.73-14.33-16.31-14.33A39.07,39.07,0,0,0,92,342.05a8.42,8.42,0,0,1-2.37.37,6.28,6.28,0,0,1-6.35-6.23,6.59,6.59,0,0,1,4.11-6,56.52,56.52,0,0,1,21.18-3.86c9.84,0,17.19,2.62,21.8,7.35,4.86,4.74,7.1,11.71,7.1,20.31v32.38a7.18,7.18,0,0,1-7.35,7.23c-4.36,0-7.35-3-7.35-6.35v-2.49c-4.48,5.35-11.34,9.59-21.43,9.59C89,394.37,78,387.27,78,374.06Zm44.67-4.52v-3.8a42.69,42.69,0,0,0-13.94-2.21c-9.07,0-14.41,3.48-14.41,9.27V373c0,5.37,5.23,8.43,12,8.43C115.62,381.44,122.71,376.59,122.71,369.54Z"
       id="path192" />
    <path
       class="cls-1"
       d="M432.68,374.06v-.25c0-14.2,11.08-21.17,27.15-21.17a54.9,54.9,0,0,1,17.69,2.74v-1.62c0-9.34-5.73-14.33-16.31-14.33a39,39,0,0,0-14.58,2.62,8.42,8.42,0,0,1-2.37.37,6.28,6.28,0,0,1-6.35-6.23,6.59,6.59,0,0,1,4.11-6,56.52,56.52,0,0,1,21.18-3.86c9.84,0,17.19,2.62,21.8,7.35,4.86,4.74,7.1,11.71,7.1,20.31v32.38a7.18,7.18,0,0,1-7.35,7.23c-4.36,0-7.35-3-7.35-6.35v-2.49c-4.49,5.35-11.34,9.59-21.43,9.59C443.64,394.37,432.68,387.27,432.68,374.06Zm44.67-4.52v-3.8a42.71,42.71,0,0,0-14-2.21c-9.06,0-14.4,3.48-14.4,9.27V373c0,5.37,5.22,8.43,12,8.43C470.26,381.44,477.35,376.59,477.35,369.54Z"
       id="path194" />
    <path
       class="cls-1"
       d="M8.87,375V340.8H6.4A6.41,6.41,0,0,1,6.4,328H8.87V304.81h14.9V328h11.7a6.41,6.41,0,1,1,0,12.81H23.77v31.89c0,5.79,2.95,8.13,8,8.13a35.07,35.07,0,0,0,3.7-.37,6.29,6.29,0,0,1,6.28,6.16,6.42,6.42,0,0,1-4,5.79,29.79,29.79,0,0,1-10.22,1.72C16.62,394.12,8.87,389.32,8.87,375Z"
       id="path196" />
    <path
       class="cls-1"
       d="M536.33,302.57h14.9v83.66a7.45,7.45,0,0,1-14.9,0Z"
       id="path198" />
    <path
       class="cls-1"
       d="M202.06,20.94c-17-11.82-44.49-17.82-81.79-17.82H8.93v287h97.8V151.6h7.33c15.4,0,28.8-.53,39.83-1.6,19-1.85,34-5.78,44.79-11.72.72-36.79,8.41-67.06,22.95-90.44C217.65,36.18,211.16,27.27,202.06,20.94ZM140,116.1a16.62,16.62,0,0,1-4.76,12.05,16.2,16.2,0,0,1-11.72,4.76l-16.81-.16V84.58h16.81A16.59,16.59,0,0,1,135.08,89,16,16,0,0,1,140,101.07Z"
       id="path200" />
    <path
       class="cls-3"
       d="M242.44,179c-9.1-9.43-24.41-14.22-45.47-14.22H180.89c-21.08,0-36.42,4.79-45.59,14.24s-13.91,25.2-13.91,46.62,4.74,37.41,14.09,47.39c9.23,9.83,24.51,14.82,45.41,14.82H197c20.89,0,36.13-5,45.29-14.81,9.3-10,14-25.93,14-47.4S251.62,188.55,242.44,179Zm-40.66,58.45a12.62,12.62,0,0,1-3.95,9.41,13,13,0,0,1-9.09,3.54,12.29,12.29,0,0,1-9.22-3.86,13,13,0,0,1-3.44-9.09V215a12.73,12.73,0,0,1,3.43-8.88,12.33,12.33,0,0,1,9.23-3.87,13,13,0,0,1,9.08,3.54,12.35,12.35,0,0,1,4,9.21Z"
       id="path202" />
    <path
       class="cls-4"
       d="M476.91,148c-14.92-1.82-48.27-3.2-48.27-3.2V287.88h48.27V235.6H502.7v52.28h48.46V3.52H502.7V214.63H476.91Z"
       id="path204" />
    <path
       class="cls-5"
       d="M318.15,127.82c38.55,0,113.92,1.42,151.83,4.75l17.61,2.65V17.59L477,13.7h0l-7.76-2.33c-8-2.49-21.84-5-41.07-7.54A478.46,478.46,0,0,0,366.14,0c-51,0-89.68,11.74-115,34.89C226,57.87,213.24,94.6,213.24,144c0,2.43.06,4.8.12,7.16,17.1,2.23,30.42,8.12,39.63,17.67,11.91,12.34,17.94,31.45,17.94,56.81,0,15.78-2.35,29.22-7,40.21,25,18.16,58.95,27.38,101.14,27.38q26.55,0,48.94-1.78V165.13c-19.55,1.35-41.55,2-65.55,2-14.88,0-25-.29-31-.9l-6.6-.66V127.82Z"
       id="path206" />
  </g>
</svg>
