<svg xmlns="http://www.w3.org/2000/svg" viewBox="0 0 551.23 560.13"><defs><style>.cls-1{fill:#ce2b7d;}.cls-2{fill:#fff;}.cls-3{fill:#e5865c;}.cls-4{fill:#da2f52;}.cls-5{fill:#2f8c97;}</style></defs><g id="Capa_2" data-name="Capa 2"><g id="Capa_1-2" data-name="Capa 1"><path class="cls-1" d="M389.72,394.12a7.65,7.65,0,0,1-7.64-7.64,44.88,44.88,0,0,0-89.76,0,7.64,7.64,0,0,1-15.28,0,44.88,44.88,0,0,0-89.76,0,7.64,7.64,0,0,1-15.28,0,60.12,60.12,0,0,1,112.68-29.24,60.12,60.12,0,0,1,112.68,29.24A7.65,7.65,0,0,1,389.72,394.12Z"/><path class="cls-1" d="M277.13,560.13c-.72,0-1.47,0-2.22-.08l-.89,0v-.28A143.77,143.77,0,0,1,153,476.41a52.28,52.28,0,0,1-11,1.27,29.71,29.71,0,0,1-12.67-2.48,7.64,7.64,0,0,1,3.32-14.53,7.55,7.55,0,0,1,3.3.75,14.78,14.78,0,0,0,6,1,41.31,41.31,0,0,0,12.61-2.19c8.28-2.69,14.2-7,15.77-9.92a7.64,7.64,0,1,1,13.44,7.27c-2.82,5.2-8.58,10.1-16.3,13.86A128.66,128.66,0,0,0,279.1,544.7c9.1-1.12,10.68-10,10.95-12.77V505.6a42.24,42.24,0,1,1,84.48,0c0,.69,0,1.38-.06,2A128.39,128.39,0,0,0,401,469.68c-7.24-3.69-12.68-8.43-15.39-13.42a7.65,7.65,0,0,1,3.08-10.36A7.65,7.65,0,0,1,399,449c1.57,2.9,7.5,7.24,15.77,9.92a41.31,41.31,0,0,0,12.61,2.19,14.8,14.8,0,0,0,6-1,7.47,7.47,0,0,1,3.31-.76A7.64,7.64,0,0,1,440,473.89a29.68,29.68,0,0,1-12.67,2.48,52.92,52.92,0,0,1-12-1.46,143.67,143.67,0,0,1-131.55,85.16c-1.37,0-2.73,0-4.12-.08C278.88,560.06,278,560.13,277.13,560.13Z"/><path class="cls-2" d="M324.15,540a49.91,49.91,0,0,0,11.64-24.88,47.36,47.36,0,0,0-2.6-24.23l1.51-.92a32.4,32.4,0,0,1,8.56,20.19c.47,11.81-6.06,23.17-17.93,31.17Z"/><path class="cls-1" d="M78,374.06v-.25c0-14.2,11.09-21.17,27.16-21.17a54.84,54.84,0,0,1,17.68,2.74v-1.62c0-9.34-5.73-14.33-16.31-14.33A39.07,39.07,0,0,0,92,342.05a8.42,8.42,0,0,1-2.37.37,6.28,6.28,0,0,1-6.35-6.23,6.59,6.59,0,0,1,4.11-6,56.52,56.52,0,0,1,21.18-3.86c9.84,0,17.19,2.62,21.8,7.35,4.86,4.74,7.1,11.71,7.1,20.31v32.38a7.18,7.18,0,0,1-7.35,7.23c-4.36,0-7.35-3-7.35-6.35v-2.49c-4.48,5.35-11.34,9.59-21.43,9.59C89,394.37,78,387.27,78,374.06Zm44.67-4.52v-3.8a42.69,42.69,0,0,0-13.94-2.21c-9.07,0-14.41,3.48-14.41,9.27V373c0,5.37,5.23,8.43,12,8.43C115.62,381.44,122.71,376.59,122.71,369.54Z"/><path class="cls-1" d="M432.68,374.06v-.25c0-14.2,11.08-21.17,27.15-21.17a54.9,54.9,0,0,1,17.69,2.74v-1.62c0-9.34-5.73-14.33-16.31-14.33a39,39,0,0,0-14.58,2.62,8.42,8.42,0,0,1-2.37.37,6.28,6.28,0,0,1-6.35-6.23,6.59,6.59,0,0,1,4.11-6,56.52,56.52,0,0,1,21.18-3.86c9.84,0,17.19,2.62,21.8,7.35,4.86,4.74,7.1,11.71,7.1,20.31v32.38a7.18,7.18,0,0,1-7.35,7.23c-4.36,0-7.35-3-7.35-6.35v-2.49c-4.49,5.35-11.34,9.59-21.43,9.59C443.64,394.37,432.68,387.27,432.68,374.06Zm44.67-4.52v-3.8a42.71,42.71,0,0,0-14-2.21c-9.06,0-14.4,3.48-14.4,9.27V373c0,5.37,5.22,8.43,12,8.43C470.26,381.44,477.35,376.59,477.35,369.54Z"/><path class="cls-1" d="M8.87,375V340.8H6.4A6.41,6.41,0,0,1,6.4,328H8.87V304.81h14.9V328h11.7a6.41,6.41,0,1,1,0,12.81H23.77v31.89c0,5.79,2.95,8.13,8,8.13a35.07,35.07,0,0,0,3.7-.37,6.29,6.29,0,0,1,6.28,6.16,6.42,6.42,0,0,1-4,5.79,29.79,29.79,0,0,1-10.22,1.72C16.62,394.12,8.87,389.32,8.87,375Z"/><path class="cls-1" d="M536.33,302.57h14.9v83.66a7.45,7.45,0,0,1-14.9,0Z"/><path class="cls-1" d="M202.06,20.94c-17-11.82-44.49-17.82-81.79-17.82H8.93v287h97.8V151.6h7.33c15.4,0,28.8-.53,39.83-1.6,19-1.85,34-5.78,44.79-11.72.72-36.79,8.41-67.06,22.95-90.44C217.65,36.18,211.16,27.27,202.06,20.94ZM140,116.1a16.62,16.62,0,0,1-4.76,12.05,16.2,16.2,0,0,1-11.72,4.76l-16.81-.16V84.58h16.81A16.59,16.59,0,0,1,135.08,89,16,16,0,0,1,140,101.07Z"/><path class="cls-3" d="M242.44,179c-9.1-9.43-24.41-14.22-45.47-14.22H180.89c-21.08,0-36.42,4.79-45.59,14.24s-13.91,25.2-13.91,46.62,4.74,37.41,14.09,47.39c9.23,9.83,24.51,14.82,45.41,14.82H197c20.89,0,36.13-5,45.29-14.81,9.3-10,14-25.93,14-47.4S251.62,188.55,242.44,179Zm-40.66,58.45a12.62,12.62,0,0,1-3.95,9.41,13,13,0,0,1-9.09,3.54,12.29,12.29,0,0,1-9.22-3.86,13,13,0,0,1-3.44-9.09V215a12.73,12.73,0,0,1,3.43-8.88,12.33,12.33,0,0,1,9.23-3.87,13,13,0,0,1,9.08,3.54,12.35,12.35,0,0,1,4,9.21Z"/><path class="cls-4" d="M476.91,148c-14.92-1.82-48.27-3.2-48.27-3.2V287.88h48.27V235.6H502.7v52.28h48.46V3.52H502.7V214.63H476.91Z"/><path class="cls-5" d="M318.15,127.82c38.55,0,113.92,1.42,151.83,4.75l17.61,2.65V17.59L477,13.7h0l-7.76-2.33c-8-2.49-21.84-5-41.07-7.54A478.46,478.46,0,0,0,366.14,0c-51,0-89.68,11.74-115,34.89C226,57.87,213.24,94.6,213.24,144c0,2.43.06,4.8.12,7.16,17.1,2.23,30.42,8.12,39.63,17.67,11.91,12.34,17.94,31.45,17.94,56.81,0,15.78-2.35,29.22-7,40.21,25,18.16,58.95,27.38,101.14,27.38q26.55,0,48.94-1.78V165.13c-19.55,1.35-41.55,2-65.55,2-14.88,0-25-.29-31-.9l-6.6-.66V127.82Z"/></g></g></svg>