<svg xmlns="http://www.w3.org/2000/svg" viewBox="0 0 252 85.49"><defs><style>.cls-1{fill:#ce2b7d;}.cls-2{fill:#e5865c;}.cls-3{fill:#da2f52;}.cls-4{fill:#2f8c97;}</style></defs><g id="Capa_2" data-name="Capa 2"><g id="Capa_1-2" data-name="Capa 1"><path class="cls-1" d="M233.49,26.1a2.59,2.59,0,0,1-2.59-2.59,15.22,15.22,0,1,0-30.43,0,2.59,2.59,0,0,1-5.18,0,15.22,15.22,0,1,0-30.43,0,2.59,2.59,0,1,1-5.18,0,20.38,20.38,0,0,1,38.2-9.91,20.38,20.38,0,0,1,38.2,9.91A2.59,2.59,0,0,1,233.49,26.1Z"/><path class="cls-1" d="M251.75,49.68a2.62,2.62,0,0,0-2.34-1.47,2.59,2.59,0,0,0-1.12.26,5.05,5.05,0,0,1-2,.33,14.07,14.07,0,0,1-4.27-.74c-2.81-.91-4.82-2.38-5.35-3.36a2.59,2.59,0,0,0-2.28-1.36,2.64,2.64,0,0,0-1.23.31,2.59,2.59,0,0,0-1.25,1.54,2.56,2.56,0,0,0,.21,2,12.09,12.09,0,0,0,5.21,4.56,43.69,43.69,0,0,1-9,12.86c0-.22,0-.45,0-.69a14.32,14.32,0,1,0-28.64,0v8.93c-.09.94-.63,4-3.71,4.32A43.6,43.6,0,0,1,158.15,52.3a12.24,12.24,0,0,0,5.52-4.69,2.61,2.61,0,0,0-1-3.52,2.67,2.67,0,0,0-1.23-.31,2.6,2.6,0,0,0-2.29,1.36c-.53,1-2.53,2.45-5.34,3.36a13.8,13.8,0,0,1-4.27.74,4.88,4.88,0,0,1-2-.33,2.59,2.59,0,0,0-2.25,4.67,10.06,10.06,0,0,0,4.29.84,18,18,0,0,0,3.72-.42,48.75,48.75,0,0,0,41,28.24v.09l.31,0c.25,0,.51,0,.75,0s.59,0,.87,0l1.4,0a48.69,48.69,0,0,0,44.59-28.86,17.91,17.91,0,0,0,4.06.49,10.08,10.08,0,0,0,4.3-.84A2.6,2.6,0,0,0,251.75,49.68ZM211.66,76l-.4-.45a16.86,16.86,0,0,0,3.94-8.43,16,16,0,0,0-.88-8.22l.52-.31a11,11,0,0,1,2.9,6.85C217.9,69.43,215.68,73.28,211.66,76Z"/><path class="cls-1" d="M84.48,85.43a1.66,1.66,0,0,1-1.66-1.65,9.73,9.73,0,1,0-19.45,0,1.66,1.66,0,0,1-3.31,0,9.73,9.73,0,0,0-19.46,0,1.66,1.66,0,0,1-3.32,0,13,13,0,0,1,24.43-6.34,13,13,0,0,1,24.43,6.34A1.66,1.66,0,0,1,84.48,85.43Z"/><path class="cls-1" d="M16.92,81.09V81c0-3.08,2.4-4.59,5.88-4.59a12,12,0,0,1,3.84.6v-.35c0-2-1.24-3.11-3.54-3.11a8.49,8.49,0,0,0-3.16.57,2,2,0,0,1-.51.08,1.36,1.36,0,0,1-1.38-1.35,1.43,1.43,0,0,1,.89-1.3,12.29,12.29,0,0,1,4.59-.84,6.38,6.38,0,0,1,4.73,1.6,5.92,5.92,0,0,1,1.54,4.4v7a1.56,1.56,0,0,1-1.6,1.57A1.48,1.48,0,0,1,26.61,84v-.54A5.8,5.8,0,0,1,22,85.49C19.29,85.49,16.92,84,16.92,81.09Zm9.68-1v-.83a9.31,9.31,0,0,0-3-.48c-2,0-3.13.76-3.13,2v0c0,1.16,1.14,1.83,2.6,1.83C25.06,82.69,26.6,81.64,26.6,80.11Z"/><path class="cls-1" d="M93.79,81.09V81c0-3.08,2.41-4.59,5.89-4.59a11.88,11.88,0,0,1,3.83.6v-.35c0-2-1.24-3.11-3.53-3.11a8.49,8.49,0,0,0-3.16.57,2,2,0,0,1-.52.08,1.36,1.36,0,0,1-1.37-1.35,1.42,1.42,0,0,1,.89-1.3,12.29,12.29,0,0,1,4.59-.84,6.35,6.35,0,0,1,4.72,1.6,5.88,5.88,0,0,1,1.54,4.4v7a1.56,1.56,0,0,1-1.59,1.57A1.48,1.48,0,0,1,103.49,84v-.54a5.8,5.8,0,0,1-4.65,2.08C96.17,85.49,93.79,84,93.79,81.09Zm9.69-1v-.83a9.38,9.38,0,0,0-3-.48c-2,0-3.12.76-3.12,2v0c0,1.16,1.13,1.83,2.6,1.83C101.94,82.69,103.48,81.64,103.48,80.11Z"/><path class="cls-1" d="M1.92,81.3V73.88H1.39a1.39,1.39,0,0,1,0-2.78h.53v-5H5.15v5H7.69a1.39,1.39,0,1,1,0,2.78H5.15v6.91a1.54,1.54,0,0,0,1.74,1.76,7.85,7.85,0,0,0,.8-.08,1.36,1.36,0,0,1,1.36,1.34,1.39,1.39,0,0,1-.86,1.25A6.4,6.4,0,0,1,6,85.43C3.6,85.43,1.92,84.39,1.92,81.3Z"/><path class="cls-1" d="M116.26,65.59h3.23V83.72a1.62,1.62,0,0,1-3.23,0Z"/><path class="cls-1" d="M43.8,4.54C40.12,2,34.16.68,26.07.68H1.93V62.89H23.14v-30h1.58c3.34,0,6.25-.11,8.64-.34A25.83,25.83,0,0,0,43.07,30c.16-8,1.82-14.54,5-19.61A11.25,11.25,0,0,0,43.8,4.54ZM30.35,25.17a3.59,3.59,0,0,1-1,2.61,3.49,3.49,0,0,1-2.54,1l-3.64,0V18.34h3.64a3.62,3.62,0,0,1,2.5.95,3.47,3.47,0,0,1,1.07,2.62Z"/><path class="cls-2" d="M52.56,38.81c-2-2.05-5.3-3.08-9.86-3.08H39.21c-4.57,0-7.89,1-9.88,3.08s-3,5.47-3,10.11,1,8.11,3.06,10.27,5.31,3.22,9.84,3.22H42.7c4.53,0,7.83-1.09,9.82-3.22s3-5.62,3-10.27S54.54,40.87,52.56,38.81ZM43.74,51.48a2.73,2.73,0,0,1-.86,2,2.82,2.82,0,0,1-2,.77,2.68,2.68,0,0,1-2-.84,2.85,2.85,0,0,1-.74-2V46.61a2.8,2.8,0,0,1,.74-1.93,2.68,2.68,0,0,1,2-.84,2.82,2.82,0,0,1,2,.77,2.69,2.69,0,0,1,.86,2Z"/><path class="cls-3" d="M103.38,32.08c-3.23-.39-10.46-.69-10.46-.69v31h10.46V51.07H109V62.41h10.51V.76H109V46.53h-5.59Z"/><path class="cls-4" d="M69,27.71c8.35,0,24.69.31,32.91,1l3.82.57V3.81L103.41,3h0l-1.68-.5A61.21,61.21,0,0,0,92.82.83,104.11,104.11,0,0,0,79.37,0C68.32,0,59.93,2.54,54.44,7.56s-8.22,13-8.22,23.66c0,.53,0,1,0,1.56,3.71.48,6.6,1.75,8.59,3.82,2.58,2.68,3.89,6.82,3.89,12.32a22.39,22.39,0,0,1-1.52,8.72c5.43,3.93,12.78,5.93,21.93,5.93q5.74,0,10.61-.38V35.8c-4.24.29-9,.44-14.21.44-3.23,0-5.43-.07-6.73-.2l-1.43-.14V27.71Z"/></g></g></svg>